HIERARCHY
ROOT hip
{
	OFFSET	0.00  0.00  0.00 
	CHANNELS 6 Xposition Yposition Zposition Xrotation Zrotation Yrotation
	JOINT abdomen
	{
		OFFSET	0.000000 0.000000 0.000000
		CHANNELS 3 Xrotation Zrotation Yrotation
		JOINT chest
		{
			OFFSET	0.000000 5.018152 -1.882228
			CHANNELS 3 Xrotation Zrotation Yrotation
			JOINT neckDummy
			{
				OFFSET	0.000000 8.316447 0.784897
				CHANNELS 3 Xrotation Yrotation Zrotation
				JOINT neck
				{
					OFFSET	0.000000 2.280413 -0.392801
					CHANNELS 3 Xrotation Zrotation Yrotation
					JOINT head
					{
						OFFSET	0.000000 3.496879 0.529469
						CHANNELS 3 Xrotation Zrotation Yrotation
						JOINT figureHair
						{
							OFFSET	0.000000 4.699570 0.720622
							CHANNELS 3 Zrotation Yrotation Xrotation
							End Site
							{
								OFFSET 0.000000 -6.419331 0.000000
							}
						}
					}
				}
			}
			JOINT lCollar
			{
				OFFSET	0.599237 8.316447 0.784897
				CHANNELS 3 Yrotation Zrotation Xrotation
				JOINT lShldr
				{
					OFFSET	6.421198 0.010146 -0.332128
					CHANNELS 3 Zrotation Yrotation Xrotation
					JOINT lForeArm
					{
						OFFSET	10.552783 0.025574 0.125508
						CHANNELS 3 Yrotation Zrotation Xrotation
						JOINT lHand
						{
							OFFSET	11.035963 0.319619 0.041520
							CHANNELS 3 Zrotation Yrotation Xrotation
							End Site
							{
								OFFSET 10.353753 0.000000 0.000000
							}
						}
					}
				}
			}
			JOINT rCollar
			{
				OFFSET	-0.599237 8.316447 0.784897
				CHANNELS 3 Yrotation Zrotation Xrotation
				JOINT rShldr
				{
					OFFSET	-6.421198 0.010146 -0.332128
					CHANNELS 3 Zrotation Yrotation Xrotation
					JOINT rForeArm
					{
						OFFSET	-10.552783 0.025574 0.125508
						CHANNELS 3 Yrotation Zrotation Xrotation
						JOINT rHand
						{
							OFFSET	-11.035963 0.319619 0.041520
							CHANNELS 3 Zrotation Yrotation Xrotation
							End Site
							{
								OFFSET -10.353753 0.000000 0.000000
							}
						}
					}
				}
			}
		}
	}
	JOINT lThigh
	{
		OFFSET	4.500466 -6.400484 -1.832696
		CHANNELS 3 Xrotation Zrotation Yrotation
		JOINT lShin
		{
			OFFSET	-1.359117 -18.918689 1.179887
			CHANNELS 3 Xrotation Zrotation Yrotation
			JOINT lFoot
			{
				OFFSET	-0.652380 -17.215186 -0.312137
				CHANNELS 3 Xrotation Yrotation Zrotation
				End Site
				{
					OFFSET 0.000000 0.000000 10.353752
				}
			}
		}
	}
	JOINT rThigh
	{
		OFFSET	-4.500466 -6.400484 -1.832696
		CHANNELS 3 Xrotation Zrotation Yrotation
		JOINT rShin
		{
			OFFSET	1.359117 -18.918689 1.179887
			CHANNELS 3 Xrotation Zrotation Yrotation
			JOINT rFoot
			{
				OFFSET	0.652380 -17.215186 -0.312137
				CHANNELS 3 Xrotation Yrotation Zrotation
				End Site
				{
					OFFSET 0.000000 0.000000 10.353752
				}
			}
		}
	}
}
MOTION
Frames:     18
Frame Time: 0.066667
0.987671 40.992233 0.559721 -1.955098 -6.448578 -0.337351 -3.866090 -0.530465 -0.031812 8.436030 10.668992 1.401758 0.000000 0.000000 0.000000 14.284900 -13.565200 3.886160 -15.962200 9.303910 -20.396999 0.000000 0.000000 0.000000 -2.306654 -9.974043 -0.572810 -53.028564 8.205741 18.454748 -77.007423 2.326544 23.678553 23.340630 -8.148979 29.890524 -5.020244 1.668366 0.008714 56.928638 20.476612 11.913151 26.441431 4.567728 -42.318298 -14.248979 -27.101774 -24.345995 -13.875647 10.624892 -1.116993 35.088150 -4.075828 -2.766188 -19.628027 1.379912 0.324418 -5.443167 3.188482 -0.087863 16.499706 3.471523 -8.298368 -8.530935 -20.290974 0.412697 
0.989651 40.991489 0.560387 -2.015025 -6.345935 -0.337408 -3.866090 -0.530465 -0.031812 8.434713 10.668863 1.401487 0.000000 0.000000 0.000000 14.010688 -13.689448 3.977439 -18.330822 8.733338 -20.934282 0.000000 0.000000 0.000000 -2.550837 -10.090395 -0.596122 -53.025898 8.205585 18.455236 -76.504471 2.296506 23.641464 24.514954 -9.123387 29.717920 -5.104112 1.555862 0.010730 56.455357 20.901300 11.653276 32.286411 4.674754 -42.805099 -11.372163 -24.941063 -24.785526 -13.776415 10.498374 -1.090903 35.040466 -4.074793 -2.761100 -19.616104 1.390692 0.346125 -5.464944 3.057643 -0.089570 16.701077 3.483136 -8.278189 -8.634748 -20.288290 0.443403 
0.991940 40.990631 0.561157 -2.082098 -6.244548 -0.337420 -3.866090 -0.530465 -0.031812 8.433288 10.668724 1.401194 0.000000 0.000000 0.000000 14.067140 -13.639678 3.969584 -17.762814 8.871058 -20.797140 0.000000 0.000000 0.000000 -2.787789 -10.203299 -0.618744 -53.020569 8.243462 18.456934 -76.144516 2.260901 23.616585 25.389622 -9.868696 29.590508 -5.183768 1.449008 0.012644 56.674450 20.716232 11.621726 36.948521 4.967478 -42.570194 -8.073443 -22.038155 -26.857460 -13.669544 10.372710 -1.065694 34.994343 -4.073727 -2.756225 -19.606560 1.401883 0.368118 -5.476154 2.927722 -0.089436 16.898645 3.494200 -8.258209 -8.737674 -20.285591 0.474565 
0.994552 40.989651 0.562035 -2.156670 -6.144530 -0.337384 -3.866090 -0.530465 -0.031812 8.431780 10.668577 1.400884 0.000000 0.000000 0.000000 14.284900 -13.565200 3.886160 -15.962200 9.303910 -20.396999 0.000000 0.000000 0.000000 -3.016533 -10.312290 -0.640582 -53.013302 8.329830 18.459900 -75.997101 2.210860 23.611200 25.816099 -10.228400 29.531700 -5.258915 1.348201 0.014450 57.366829 20.106476 11.850049 40.285496 5.311529 -42.044445 -4.667957 -18.746510 -29.427734 -13.554675 10.248002 -1.041425 34.949886 -4.072631 -2.751579 -19.599529 1.413503 0.390404 -5.476225 2.798824 -0.087365 17.092119 3.504680 -8.238449 -8.839617 -20.282877 0.506193 
0.994552 40.989651 0.562035 -2.156670 -6.144530 -0.337384 -3.866090 -0.530465 -0.031812 8.430216 10.668426 1.400562 0.000000 0.000000 0.000000 14.521429 -13.587443 3.750364 -14.342834 9.689311 -20.073227 0.000000 0.000000 0.000000 -3.236092 -10.416905 -0.661543 -53.013302 8.329830 18.459900 -75.997101 2.210860 23.611200 25.816099 -10.228400 29.531700 -5.329257 1.253840 0.016141 58.313400 19.257099 12.369800 42.155102 5.572540 -41.658699 -1.470840 -15.419600 -31.362301 -13.554675 10.248002 -1.041425 34.949886 -4.072631 -2.751579 -19.599529 1.413503 0.390404 -5.476225 2.798824 -0.087365 17.092119 3.504680 -8.238449 -8.839617 -20.282877 0.506193 
0.981186 40.994667 0.557540 -1.781699 -6.603414 -0.337733 -3.866090 -0.530465 -0.031812 8.428620 10.668272 1.400234 0.000000 0.000000 0.000000 14.741431 -13.716301 3.583920 -13.157990 9.966930 -19.876968 0.000000 0.000000 0.000000 -3.445490 -10.516679 -0.681535 -53.054157 7.690948 18.440468 -75.657074 2.527117 23.538486 25.939934 -10.459572 29.479372 -5.394497 1.166322 0.017709 59.327099 18.327419 13.194664 42.488144 5.644782 -41.756496 1.262846 -12.351866 -31.769764 -14.118576 10.823061 -1.150431 35.149734 -4.077838 -2.772266 -19.622478 1.357925 0.285854 -5.518822 3.393061 -0.104448 16.210035 3.458295 -8.329308 -8.370301 -20.295519 0.357614 
0.956680 41.003857 0.549300 -1.094412 -7.442855 -0.338378 -3.866090 -0.530465 -0.031812 8.427020 10.668118 1.399906 0.000000 0.000000 0.000000 14.936420 -13.933779 3.408180 -12.370785 10.147001 -19.787302 0.000000 0.000000 0.000000 -3.643751 -10.611147 -0.700463 -53.139984 6.369756 18.400612 -74.819481 3.132615 23.380135 26.298588 -11.036642 29.356524 -5.454341 1.086044 0.019148 60.349007 17.373768 14.266880 41.507771 5.537095 -42.332169 3.518323 -9.601665 -30.729387 -15.151641 11.875139 -1.349741 35.515148 -4.087373 -2.810083 -19.664080 1.256162 0.094505 -5.598509 4.480220 -0.136011 14.596664 3.373513 -8.495525 -7.511713 -20.318655 0.085675 
0.927240 41.014900 0.539400 -0.268835 -8.450590 -0.339156 -3.866090 -0.530465 -0.031812 8.425442 10.667965 1.399582 0.000000 0.000000 0.000000 15.097909 -14.221883 3.244501 -11.944337 10.239758 -19.783310 0.000000 0.000000 0.000000 -3.829896 -10.699842 -0.718234 -53.265408 4.486407 18.344278 -73.442902 3.908701 23.144855 26.850660 -11.909709 29.176504 -5.508491 1.013403 0.020449 61.352230 16.426733 15.510817 39.510216 5.286963 -43.292744 5.340888 -7.168336 -28.563105 -16.392382 13.138187 -1.588973 35.953758 -4.098821 -2.855473 -19.713879 1.133963 -0.135241 -5.694827 5.785382 -0.174018 12.659925 3.271760 -8.695069 -6.480967 -20.346434 -0.240836 
0.899073 41.025467 0.529928 0.521008 -9.414358 -0.339902 -3.866090 -0.530465 -0.031812 8.423912 10.667816 1.399267 0.000000 0.000000 0.000000 15.217409 -14.562619 3.114234 -11.841761 10.255434 -19.844072 0.000000 0.000000 0.000000 -4.002949 -10.782299 -0.734755 -53.425072 2.161070 18.275417 -71.485916 4.736714 22.841366 27.554752 -13.028867 28.952671 -5.556650 0.948798 0.021607 62.309895 15.516900 16.850857 36.791702 4.931867 -44.545258 6.775836 -5.051217 -25.592848 -17.579309 14.346154 -1.817748 36.373196 -4.109772 -2.898877 -19.761423 1.017076 -0.354984 -5.787315 7.033625 -0.210432 10.807732 3.174461 -8.885908 -5.495177 -20.373003 -0.553132 
0.878384 41.033226 0.522971 1.101093 -10.121900 -0.340451 -3.866090 -0.530465 -0.031812 8.422457 10.667675 1.398968 0.000000 0.000000 0.000000 15.286434 -14.937995 3.038735 -12.026175 10.204265 -19.948669 0.000000 0.000000 0.000000 -4.161933 -10.858053 -0.749933 -53.613602 -0.486081 18.197975 -68.907120 5.497995 22.478386 28.369459 -14.344204 28.698381 -5.598523 0.892626 0.022613 63.195114 14.674858 18.211372 33.648472 4.509291 -45.996742 7.868464 -3.249641 -22.140547 -18.450939 15.232993 -1.985685 36.681091 -4.117812 -2.930737 -19.796263 0.931249 -0.516322 -5.855514 7.950030 -0.237218 9.448001 3.103041 -9.026011 -4.771458 -20.392509 -0.782425 
0.871381 41.035854 0.520616 1.297391 -10.360947 -0.340638 -3.866090 -0.530465 -0.031812 8.421103 10.667544 1.398690 0.000000 0.000000 0.000000 15.296496 -15.330014 3.039357 -12.460696 10.096481 -20.076178 0.000000 0.000000 0.000000 -4.305872 -10.926639 -0.763675 -53.825630 -3.334901 18.115898 -65.665077 6.073891 22.064625 29.253382 -15.805822 28.426983 -5.633812 0.845284 0.023461 63.981010 13.931193 19.516737 30.376755 4.056715 -47.554222 8.664066 -1.762948 -18.528133 -18.745775 15.532644 -2.042401 36.785072 -4.120529 -2.941495 -19.807945 0.902230 -0.570853 -5.878963 8.259670 -0.246340 8.988661 3.078928 -9.073348 -4.526929 -20.399101 -0.859927 
0.884270 41.031021 0.524950 0.935880 -9.919242 -0.340299 -3.866090 -0.530465 -0.031812 8.419875 10.667426 1.398438 0.000000 0.000000 0.000000 15.239111 -15.720688 3.137455 -13.108442 9.942320 -20.205685 0.000000 0.000000 0.000000 -4.433789 -10.987590 -0.775887 -54.055794 -6.265206 18.033138 -61.718399 6.345740 21.608801 30.165115 -17.363808 28.151833 -5.662223 0.807169 0.024144 64.640717 13.316498 20.691328 27.272787 3.611625 -49.124737 9.207940 -0.590475 -15.077546 -18.202335 14.979063 -1.937517 36.592777 -4.115513 -2.921594 -19.786020 0.955767 -0.470177 -5.837205 7.687630 -0.229762 9.837622 3.123545 -8.985888 -4.978703 -20.386929 -0.716849 
0.923258 41.016396 0.538061 -0.157466 -8.584524 -0.339269 -3.866090 -0.530465 -0.031812 8.418798 10.667322 1.398216 0.000000 0.000000 0.000000 15.105790 -16.092020 3.354381 -13.932528 9.752014 -20.316271 0.000000 0.000000 0.000000 -4.544706 -11.040441 -0.786476 -54.298717 -9.156853 17.953640 -57.082249 6.233504 21.121542 31.063263 -18.968264 27.886274 -5.683458 0.778680 0.024655 65.147331 12.861359 21.659515 24.632807 3.211504 -50.615311 9.545380 0.268441 -12.110715 -16.559134 13.306199 -1.620652 36.011841 -4.100351 -2.861474 -19.720032 1.117609 -0.165891 -5.709780 5.958988 -0.179449 12.402802 3.258321 -8.721599 -6.343894 -20.350140 -0.284405 
0.994552 40.989651 0.562035 -2.156670 -6.144530 -0.337384 -3.866090 -0.530465 -0.031812 8.417898 10.667234 1.398031 0.000000 0.000000 0.000000 14.888049 -16.426023 3.711491 -14.896076 9.535799 -20.387016 0.000000 0.000000 0.000000 -4.637647 -11.084725 -0.795349 -54.549038 -11.889667 17.881357 -51.998302 5.811611 20.621130 31.906420 -20.569279 27.643667 -5.697222 0.760213 0.024986 65.473984 12.596363 22.345684 22.753031 2.893831 -51.932991 9.721681 0.814462 -9.949574 -13.554675 10.248002 -1.041425 34.949886 -4.072631 -2.751579 -19.599529 1.413503 0.390404 -5.476225 2.798824 -0.087365 17.092119 3.504680 -8.238449 -8.839617 -20.282877 0.506193 
0.994552 40.989651 0.562035 -4.660300 -3.093780 -0.334437 -3.866090 -0.530465 -0.031812 8.417202 10.667166 1.397888 0.000000 0.000000 0.000000 14.577400 -16.704700 4.230140 -15.962200 9.303910 -20.396999 0.000000 0.000000 0.000000 -4.711635 -11.119978 -0.802413 -54.801388 -14.343476 17.820234 -46.764866 5.193108 20.127760 32.653183 -22.116941 27.437365 -5.703220 0.752166 0.025130 65.593803 12.552100 22.674200 21.929701 2.696090 -52.984798 9.782140 1.048250 -8.916060 -9.673404 6.560333 -0.321631 33.263935 -4.026735 -2.576427 -19.209396 1.763239 0.923374 -5.007889 -0.993186 0.043086 22.375864 3.800518 -7.690602 -11.704370 -20.199970 1.317999 
0.540539 41.160191 0.409270 -5.661273 -1.893674 -0.330763 -3.866090 -0.530465 -0.031812 8.416737 10.667120 1.397793 0.000000 0.000000 0.000000 14.223660 -16.898050 4.830247 -16.966423 9.092038 -20.345440 0.000000 0.000000 0.000000 -4.765692 -11.145735 -0.807573 -55.050392 -16.398132 17.774220 -41.680176 4.491035 19.661621 33.262157 -23.561357 27.280718 -5.703220 0.752166 0.025130 65.593803 12.552100 22.674200 21.929701 2.696090 -52.984798 9.782140 1.048250 -8.916060 -7.514028 5.802279 -0.062985 30.770258 -3.951134 -2.314635 -17.831879 1.797233 0.304626 -3.895631 -1.671461 0.175459 21.519184 3.835384 -7.760692 -11.524817 -20.173534 0.737057 
-0.219611 41.446980 0.153007 -5.361803 -2.271375 -0.329485 -3.866090 -0.530465 -0.031812 8.416530 10.667100 1.397750 0.000000 0.000000 0.000000 14.109875 -16.928059 5.025996 -17.233902 9.037710 -20.312128 0.000000 0.000000 0.000000 -4.798842 -11.161530 -0.810738 -55.290684 -17.933458 17.747259 -37.042542 3.818443 19.242905 33.691929 -24.852610 27.187078 -5.703220 0.752166 0.025130 65.886429 11.841266 22.696228 20.957153 3.064398 -49.314053 9.782140 1.048250 -8.916060 -6.943357 7.417084 -0.204250 27.881413 -3.858735 -2.010044 -15.808630 1.577797 -1.150428 -2.231292 0.174242 0.312761 16.031012 3.558362 -8.302341 -8.959536 -20.194592 -0.872594 
-0.977913 41.735901 -0.103739 -4.660300 -3.093780 -0.334437 -3.866090 -0.530465 -0.031812 8.416530 10.667100 1.397750 0.000000 0.000000 0.000000 14.577400 -16.704700 4.230140 -15.962200 9.303910 -20.396999 0.000000 0.000000 0.000000 -4.810110 -11.166900 -0.811814 -55.516899 -18.829300 17.743299 -33.150200 3.288370 18.891800 33.901100 -25.940800 27.169800 -5.703220 0.752166 0.025130 66.476952 10.455771 22.805050 18.905336 3.737732 -42.415901 9.782140 1.048250 -8.916060 -6.958742 9.563519 -0.475401 25.171724 -3.769352 -1.724283 -13.797342 1.301706 -2.684466 -0.259023 2.601650 0.470719 9.965699 3.004304 -8.912862 -5.929774 -20.228716 -2.600962 
